<?xml version="1.0" encoding="UTF-8"?>
<svg width="227px" height="39px" viewBox="0 0 227 39" version="1.1" xmlns="http://www.w3.org/2000/svg" xmlns:xlink="http://www.w3.org/1999/xlink">
    <!-- Generator: Sketch 49.2 (51160) - http://www.bohemiancoding.com/sketch -->
    <title>CHG-HOR-RGB</title>
    <desc>Created with Sketch.</desc>
    <defs></defs>
    <g id="Page-1" stroke="none" stroke-width="1" fill="none" fill-rule="evenodd">
        <g id="CHG-HOR-RGB" transform="translate(0.000000, -1.000000)">
            <path d="M25.658,21.436 L6.293,1.827 C7.102,1.028 8.405,1.036 9.204,1.845 L27.123,19.99 L25.658,21.436" id="Fill-1" fill="#345884"></path>
            <path d="M17.016,6.583 L14.753,4.291 C15.562,3.492 16.865,3.5 17.664,4.309 L18.481,5.137 L17.016,6.583" id="Fill-2" fill="#345884"></path>
            <path d="M22.693,24.468 L3.327,4.858 C4.136,4.06 5.44,4.067 6.238,4.876 L24.157,23.021 L22.693,24.468" id="Fill-3" fill="#345884"></path>
            <path d="M19.675,27.447 L0.311,7.838 C1.119,7.039 2.423,7.047 3.221,7.856 L21.14,26.001 L19.675,27.447" id="Fill-4" fill="#345884"></path>
            <path d="M22.362,12.193 L20.916,10.729 L29.973,1.784 C30.782,0.986 32.086,0.994 32.884,1.803 L22.362,12.193" id="Fill-5" fill="#345884"></path>
            <path d="M19.358,9.134 L17.911,7.67 L20.917,4.702 C21.726,3.903 23.029,3.911 23.828,4.72 L19.358,9.134" id="Fill-6" fill="#345884"></path>
            <path d="M25.314,15.238 L23.867,13.773 L32.925,4.829 C33.734,4.03 35.037,4.039 35.836,4.847 L25.314,15.238" id="Fill-7" fill="#345884"></path>
            <path d="M28.293,18.255 L26.847,16.791 L35.905,7.846 C36.713,7.047 38.016,7.056 38.815,7.864 L28.293,18.255" id="Fill-8" fill="#345884"></path>
            <path d="M47.774,12.177 L47.774,12.132 C47.774,7.634 51.136,3.909 55.815,3.909 C58.699,3.909 60.425,4.931 62.016,6.43 L60.789,7.748 C59.449,6.476 57.95,5.567 55.792,5.567 C52.271,5.567 49.636,8.429 49.636,12.086 L49.636,12.132 C49.636,15.812 52.294,18.696 55.792,18.696 C57.972,18.696 59.403,17.855 60.925,16.402 L62.107,17.561 C60.448,19.241 58.631,20.355 55.746,20.355 C51.158,20.355 47.774,16.743 47.774,12.177" id="Fill-9" fill="#4F514F"></path>
            <path d="M78.433,12.177 L78.433,12.132 C78.433,8.52 75.799,5.567 72.164,5.567 C68.53,5.567 65.94,8.474 65.94,12.086 L65.94,12.132 C65.94,15.743 68.575,18.696 72.21,18.696 C75.844,18.696 78.433,15.789 78.433,12.177 Z M64.078,12.177 L64.078,12.132 C64.078,7.748 67.371,3.909 72.21,3.909 C77.048,3.909 80.296,7.703 80.296,12.086 C80.319,12.109 80.319,12.109 80.296,12.132 C80.296,16.515 77.002,20.355 72.164,20.355 C67.326,20.355 64.078,16.561 64.078,12.177 Z" id="Fill-10" fill="#4F514F"></path>
            <path d="M90.761,12.291 C93.147,12.291 94.851,11.064 94.851,9.02 L94.851,8.975 C94.851,7.02 93.351,5.84 90.784,5.84 L85.878,5.84 L85.878,12.291 L90.761,12.291 Z M84.084,4.182 L90.921,4.182 C92.874,4.182 94.442,4.772 95.441,5.771 C96.214,6.544 96.668,7.657 96.668,8.906 L96.668,8.951 C96.668,11.586 94.851,13.131 92.352,13.585 L97.236,20.082 L95.032,20.082 L90.421,13.903 L85.878,13.903 L85.878,20.082 L84.084,20.082 L84.084,4.182 Z" id="Fill-11" fill="#4F514F"></path>
            <polyline id="Fill-12" fill="#4F514F" points="100.501 4.182 102.182 4.182 112.199 16.924 112.199 4.182 113.948 4.182 113.948 20.082 112.517 20.082 102.25 7.043 102.25 20.082 100.501 20.082 100.501 4.182"></polyline>
            <polyline id="Fill-13" fill="#4F514F" points="118.44 4.182 129.934 4.182 129.934 5.817 120.235 5.817 120.235 11.246 128.912 11.246 128.912 12.881 120.235 12.881 120.235 18.446 130.049 18.446 130.049 20.082 118.44 20.082 118.44 4.182"></polyline>
            <path d="M140.333,12.291 C142.717,12.291 144.422,11.064 144.422,9.02 L144.422,8.975 C144.422,7.02 142.923,5.84 140.355,5.84 L135.45,5.84 L135.45,12.291 L140.333,12.291 Z M133.654,4.182 L140.492,4.182 C142.446,4.182 144.013,4.772 145.012,5.771 C145.785,6.544 146.239,7.657 146.239,8.906 L146.239,8.951 C146.239,11.586 144.422,13.131 141.924,13.585 L146.806,20.082 L144.603,20.082 L139.992,13.903 L135.45,13.903 L135.45,20.082 L133.654,20.082 L133.654,4.182 Z" id="Fill-14" fill="#4F514F"></path>
            <path d="M149.028,17.765 L150.141,16.447 C151.8,17.947 153.389,18.696 155.592,18.696 C157.727,18.696 159.136,17.561 159.136,15.993 L159.136,15.948 C159.136,14.471 158.341,13.631 155.002,12.926 C151.345,12.132 149.664,10.951 149.664,8.338 L149.664,8.293 C149.664,5.794 151.867,3.954 154.889,3.954 C157.205,3.954 158.864,4.613 160.476,5.908 L159.431,7.293 C157.955,6.089 156.478,5.567 154.843,5.567 C152.776,5.567 151.459,6.703 151.459,8.134 L151.459,8.179 C151.459,9.678 152.276,10.519 155.774,11.269 C159.318,12.041 160.953,13.335 160.953,15.766 L160.953,15.812 C160.953,18.537 158.681,20.309 155.524,20.309 C153.004,20.309 150.936,19.468 149.028,17.765" id="Fill-15" fill="#4F514F"></path>
            <polyline id="Fill-16" fill="#4F514F" points="168.469 5.84 163.132 5.84 163.132 4.182 175.625 4.182 175.625 5.84 170.288 5.84 170.288 20.082 168.469 20.082 168.469 5.84"></polyline>
            <path d="M191.542,12.177 L191.542,12.132 C191.542,8.52 188.908,5.567 185.273,5.567 C181.638,5.567 179.049,8.474 179.049,12.086 L179.049,12.132 C179.049,15.743 181.684,18.696 185.319,18.696 C188.953,18.696 191.542,15.789 191.542,12.177 Z M177.186,12.177 L177.186,12.132 C177.186,7.748 180.48,3.909 185.319,3.909 C190.157,3.909 193.405,7.703 193.405,12.086 C193.426,12.109 193.426,12.109 193.405,12.132 C193.405,16.515 190.111,20.355 185.273,20.355 C180.434,20.355 177.186,16.561 177.186,12.177 Z" id="Fill-17" fill="#4F514F"></path>
            <polyline id="Fill-18" fill="#4F514F" points="197.192 4.182 198.873 4.182 208.89 16.924 208.89 4.182 210.639 4.182 210.639 20.082 209.208 20.082 198.941 7.043 198.941 20.082 197.192 20.082 197.192 4.182"></polyline>
            <polyline id="Fill-19" fill="#4F514F" points="215.132 4.182 226.625 4.182 226.625 5.817 216.926 5.817 216.926 11.246 225.603 11.246 225.603 12.881 216.926 12.881 216.926 18.446 226.739 18.446 226.739 20.082 215.132 20.082 215.132 4.182"></polyline>
            <polyline id="Fill-20" fill="#4F514F" points="48.007 29.472 49.758 29.472 49.758 33.614 54.513 33.614 54.513 29.472 56.264 29.472 56.264 39.437 54.513 39.437 54.513 35.237 49.758 35.237 49.758 39.437 48.007 39.437 48.007 29.472"></polyline>
            <polyline id="Fill-21" fill="#4F514F" points="58.822 29.472 66.211 29.472 66.211 31.038 60.573 31.038 60.573 33.629 65.57 33.629 65.57 35.195 60.573 35.195 60.573 37.871 66.282 37.871 66.282 39.437 58.822 39.437 58.822 29.472"></polyline>
            <path d="M74.392,35.48 L72.67,31.493 L70.961,35.48 L74.392,35.48 Z M71.886,29.4 L73.509,29.4 L77.894,39.437 L76.043,39.437 L75.032,37.03 L70.321,37.03 L69.296,39.437 L67.502,39.437 L71.886,29.4 Z" id="Fill-22" fill="#4F514F"></path>
            <polyline id="Fill-23" fill="#4F514F" points="79.597 29.472 81.348 29.472 81.348 37.842 86.587 37.842 86.587 39.437 79.597 39.437 79.597 29.472"></polyline>
            <polyline id="Fill-24" fill="#4F514F" points="89.429 31.095 86.269 31.095 86.269 29.472 94.355 29.472 94.355 31.095 91.195 31.095 91.195 39.437 89.429 39.437 89.429 31.095"></polyline>
            <polyline id="Fill-25" fill="#4F514F" points="96.201 29.472 97.952 29.472 97.952 33.614 102.707 33.614 102.707 29.472 104.458 29.472 104.458 39.437 102.707 39.437 102.707 35.237 97.952 35.237 97.952 39.437 96.201 39.437 96.201 29.472"></polyline>
            <path d="M106.574,34.483 L106.574,34.454 C106.574,31.621 108.696,29.301 111.714,29.301 C113.55,29.301 114.66,29.942 115.614,30.854 L114.489,32.147 C113.692,31.408 112.838,30.909 111.699,30.909 C109.792,30.909 108.411,32.476 108.411,34.426 L108.411,34.454 C108.411,36.405 109.792,37.999 111.699,37.999 C112.924,37.999 113.706,37.501 114.561,36.703 L115.685,37.842 C114.646,38.925 113.507,39.608 111.642,39.608 C108.738,39.608 106.574,37.345 106.574,34.483" id="Fill-26" fill="#4F514F"></path>
            <path d="M123.552,35.48 L121.831,31.493 L120.123,35.48 L123.552,35.48 Z M121.048,29.4 L122.671,29.4 L127.055,39.437 L125.205,39.437 L124.194,37.03 L119.482,37.03 L118.457,39.437 L116.663,39.437 L121.048,29.4 Z" id="Fill-27" fill="#4F514F"></path>
            <path d="M133.072,34.411 C134.325,34.411 135.123,33.757 135.123,32.746 L135.123,32.718 C135.123,31.65 134.353,31.066 133.058,31.066 L130.509,31.066 L130.509,34.411 L133.072,34.411 Z M128.759,29.472 L133.2,29.472 C134.453,29.472 135.435,29.843 136.076,30.469 C136.603,31.009 136.901,31.75 136.901,32.618 L136.901,32.647 C136.901,34.284 135.92,35.266 134.524,35.664 L137.215,39.437 L135.15,39.437 L132.702,35.964 L130.509,35.964 L130.509,39.437 L128.759,39.437 L128.759,29.472 Z" id="Fill-28" fill="#4F514F"></path>
            <polyline id="Fill-29" fill="#4F514F" points="139.047 29.472 146.435 29.472 146.435 31.038 140.798 31.038 140.798 33.629 145.795 33.629 145.795 35.195 140.798 35.195 140.798 37.871 146.507 37.871 146.507 39.437 139.047 39.437 139.047 29.472"></polyline>
            <path d="M152.408,34.483 L152.408,34.454 C152.408,31.665 154.544,29.301 157.548,29.301 C159.284,29.301 160.351,29.785 161.377,30.653 L160.266,31.978 C159.498,31.323 158.743,30.909 157.476,30.909 C155.639,30.909 154.245,32.519 154.245,34.426 L154.245,34.454 C154.245,36.504 155.597,38.014 157.633,38.014 C158.573,38.014 159.426,37.714 160.039,37.259 L160.039,35.395 L157.49,35.395 L157.49,33.87 L161.733,33.87 L161.733,38.056 C160.751,38.896 159.342,39.608 157.575,39.608 C154.459,39.608 152.408,37.387 152.408,34.483" id="Fill-30" fill="#4F514F"></path>
            <path d="M168.319,34.411 C169.572,34.411 170.369,33.757 170.369,32.746 L170.369,32.718 C170.369,31.65 169.6,31.066 168.304,31.066 L165.757,31.066 L165.757,34.411 L168.319,34.411 Z M164.006,29.472 L168.447,29.472 C169.7,29.472 170.682,29.843 171.323,30.469 C171.849,31.009 172.148,31.75 172.148,32.618 L172.148,32.647 C172.148,34.284 171.166,35.266 169.771,35.664 L172.462,39.437 L170.397,39.437 L167.949,35.964 L165.757,35.964 L165.757,39.437 L164.006,39.437 L164.006,29.472 Z" id="Fill-31" fill="#4F514F"></path>
            <path d="M182.436,34.483 L182.436,34.454 C182.436,32.519 181.027,30.909 179.049,30.909 C177.07,30.909 175.689,32.489 175.689,34.426 L175.689,34.454 C175.689,36.391 177.097,37.999 179.077,37.999 C181.056,37.999 182.436,36.419 182.436,34.483 Z M173.852,34.483 L173.852,34.454 C173.852,31.65 176.016,29.301 179.077,29.301 C182.137,29.301 184.273,31.621 184.273,34.426 L184.273,34.454 C184.273,37.259 182.109,39.608 179.049,39.608 C175.988,39.608 173.852,37.287 173.852,34.483 Z" id="Fill-32" fill="#4F514F"></path>
            <path d="M186.232,35.209 L186.232,29.472 L187.983,29.472 L187.983,35.138 C187.983,36.988 188.937,37.984 190.503,37.984 C192.054,37.984 193.009,37.045 193.009,35.209 L193.009,29.472 L194.759,29.472 L194.759,35.123 C194.759,38.099 193.079,39.594 190.474,39.594 C187.884,39.594 186.232,38.099 186.232,35.209" id="Fill-33" fill="#4F514F"></path>
            <path d="M200.947,34.653 C202.271,34.653 203.096,33.914 203.096,32.874 L203.096,32.846 C203.096,31.678 202.258,31.066 200.947,31.066 L198.912,31.066 L198.912,34.653 L200.947,34.653 Z M197.16,29.472 L201.09,29.472 C203.411,29.472 204.877,30.796 204.877,32.804 L204.877,32.831 C204.877,35.066 203.082,36.233 200.89,36.233 L198.912,36.233 L198.912,39.437 L197.16,39.437 L197.16,29.472 Z" id="Fill-34" fill="#4F514F"></path>
        </g>
    </g>
</svg>